<?xml version="1.0" encoding="UTF-8"?>
<svg xmlns="http://www.w3.org/2000/svg" viewBox="0 900 2834.646 900">
  <defs>
    <style>
      .cls-1 {
        fill: #252631;
      }

      .cls-2 {
        fill: none;
      }

      .cls-3 {
        fill: #a5d0d8;
      }
    </style>
  </defs>
  <g id="Capa_1" data-name="Capa 1">
    <g>
      <g>
        <path class="cls-1" d="M1803.123,1355.08c-.223,58.396-52.274,98.682-105.826,94.596-54.047-4.124-95.127-50.821-91.232-105.499,3.788-53.182,50.441-96.026,106.785-91.06,19.8,1.745,36.107,11.278,54.841,22.399l.525-80.413,35.517.131-.611,159.846ZM1687.754,1291.162c-36.024,10.082-52.956,46.583-42.956,78.724,10.094,32.443,44.608,51.729,78.507,41.4,30.803-9.386,50.967-43.087,42.788-74.469-8.756-33.596-41.735-55.898-78.339-45.654Z"/>
        <path class="cls-1" d="M2466.496,1350.363c-4.056,28.714,20.072,54.159,43.881,61.057,31.557,9.142,59.565-5.721,74.461-32.663l37.561.167c-14.059,51.772-65.913,79.625-116.023,68.613-50.048-10.998-82.325-58.092-76.434-107.822,6.175-52.131,51.067-89.45,103.135-86.91,51.004,2.489,92.597,42.929,93.997,97.304l-160.578.253ZM2577.582,1314.121c-25.955-35.321-74.828-33.644-99.158.209l99.158-.209Z"/>
        <path class="cls-1" d="M1987.402,1310.279c-17.268,45.393-78.152,40.08-117.888,40.232l-.192,91.327-35.991-.538v-246.417s93.193.502,93.193.502c23.981.129,45.46,13.623,58.01,32.616,10.652,26.388,13.139,55.277,2.868,82.278ZM1956.427,1272.961c.318-23.18-11.031-42.39-34.473-42.775l-52.61-.864.306,86.167,53.022-1.177c22.884-.508,33.443-18.543,33.755-41.351Z"/>
        <path class="cls-1" d="M1394.649,1441.321l-30.202,1.013-8.247-12.583c-50.14,37.453-120.18,20.781-148.169-33.182-28.096-54.169-.455-120.05,56.645-138.914,59.059-19.511,124.982,19.89,128.966,84.279,2.074,33.517.776,62.058,1.007,99.387ZM1278.708,1291.278c-35.826,10.341-52.873,46.786-42.829,78.548,10.331,32.669,44.833,51.721,78.446,41.432,31.239-9.563,51.464-43.249,42.763-75.101-9.032-33.063-42.152-55.337-78.379-44.88Z"/>
        <polygon class="cls-1" points="1054.948 1314.909 1055.059 1350.092 945.306 1350.347 944.936 1441.754 909.292 1441.882 909.187 1194.823 1077.725 1194.828 1078.317 1229.792 945.322 1230.154 945.091 1314.711 1054.948 1314.909"/>
        <path class="cls-1" d="M2304.037,1440.092c-23.412-13.023-34.593-36.042-31.321-60.944l33.625-.61c2.285,10.589,4.854,22.258,10.22,26.981,7.198,6.335,19.747,9.355,29.638,8.746,11.343-.698,20.825-8.617,23.237-17.778,2.643-10.038-3.809-22.478-14.974-26.183l-42.675-14.163c-20.737-6.882-33.084-25.396-34.698-44.181-1.798-20.937,9.807-39.034,28.818-49.74,19.184-10.804,41.899-13.78,63.397-3.276,16.015,7.825,32.028,24.472,33.117,47.336l-34.368-.192c-7.826-11.564-15.419-19.448-27.277-19.819-12.302-.385-26.387,8.271-27.988,21.567-.567,4.709,8.384,12.984,12.908,14.658l44.283,16.392c18.671,6.911,31.691,23.57,35.155,39.144,4.699,21.129-.058,42.23-16.882,55.895-23.488,19.077-57.02,21.295-84.215,6.167Z"/>
        <path class="cls-1" d="M1550.588,1262.217l35.448-.577.061,98.577c.029,46.895-39.404,83.32-84.356,81.608-46.007-1.752-79.832-39.698-79.511-86.035l.648-93.65,35.216-.632.826,98.614c.218,25.976,21.731,45.146,45.852,45.188,23.155.04,45.461-19.35,45.535-45.097l.282-97.995Z"/>
        <path class="cls-1" d="M2144.826,1262.303l35.596-.822.027,98.695c.012,44.561-35.278,79.723-78.089,81.612-42.473,1.874-84.643-31.633-84.943-76.633l-.687-102.985,35.95-.042.483,98.149c.127,25.787,22.294,45,45.728,45.017,23.582.017,45.634-19.222,45.696-44.989l.238-98.002Z"/>
        <polygon class="cls-1" points="2245.471 1441.545 2210.01 1441.505 2210.077 1195.175 2245.414 1195.187 2245.471 1441.545"/>
        <path class="cls-1" d="M1196.79,1296.273c-36.751-1.306-68.326,24.378-68.759,60.669l-1.012,84.948-34.62-.333-.205-179.115,33.726-1.156,2.6,20.216c22.201-14.651,42.759-21.544,68.242-20.925l.027,35.695Z"/>
      </g>
      <path class="cls-3" d="M198.92,1429.754c-20.045,28.072-56.782,31.965-81.742,12.063-25.721-20.509-27.683-59.115-5.353-82.329,23.294-24.215,61.319-22.954,83.9,3.029l81.882.355c5.328-.096,9.697-1.591,12.616-7.197l94.881-163.34,67.363,248.856c17.301-26.281,31.375-51.581,45.464-76.525,2.008-3.554,9.126-7.648,12.606-7.641l114.705.229c56.131.112,100.807-43.779,102.46-98.304,1.678-55.379-42.915-103.553-100.075-103.643l-221.438-.346,38.648-67.36,184.77.495c90.452.242,161.869,72.465,165.367,162.152,3.573,91.621-66.721,167.662-158.114,173.142-28.518,1.71-54.999,1.585-84.127,1.056-6.352-.172-13.297,2.704-16.591,8.4l-106.182,183.629-67.997-250.457c-23.226,39.78-18.452,64.912-59.335,64.58l-103.705-.842Z"/>
    </g>
  </g>
</svg>