<?xml version="1.0" encoding="UTF-8"?>
<svg id="Capa_1" data-name="Capa 1" xmlns="http://www.w3.org/2000/svg" viewBox="0 0 2834.646 2834.646">
  <defs>
    <style>
      .cls-1 {
        fill: #fff;
      }
    </style>
  </defs>
  <path class="cls-1" d="M620.083,1668.354c-64.747,90.674-183.407,103.25-264.03,38.963-83.08-66.246-89.419-190.945-17.29-265.927,75.241-78.217,198.063-74.143,271,9.782l264.482,1.147c17.208-.312,31.321-5.14,40.752-23.246l306.47-527.598,217.585,803.816c55.883-84.889,101.342-166.611,146.851-247.18,6.484-11.48,29.479-24.703,40.717-24.68l370.501.739c181.305.361,325.613-141.409,330.95-317.526,5.421-178.875-138.619-334.482-323.249-334.771l-715.255-1.119,124.834-217.576,596.815,1.598c292.165.782,522.845,234.065,534.142,523.76,11.541,295.941-215.511,541.557-510.718,559.257-92.116,5.523-177.65,5.118-271.733,3.412-20.518-.556-42.95,8.733-53.589,27.132l-342.972,593.13-219.634-808.988c-75.022,128.492-59.599,209.668-191.655,208.596l-334.973-2.721Z"/>
</svg>